<svg id="svg-source" height="0" version="1.1" 
  xmlns="http://www.w3.org/2000/svg" style="position:absolute; margin-left: -100%" 
  xmlns:xlink="http://www.w3.org/1999/xlink">
  <g id="facebook" data-iconmelon="Jolly Icons:6d630f767a8f5641c9d0ad14befcf2f5">
    <path fill-rule="evenodd" clip-rule="evenodd" d="M24.114,1.737c-0.033-0.233-0.311-0.226-0.345-0.46
	c-0.31-0.189-0.509-0.487-0.806-0.689c-0.811-0.188-1.607-0.387-2.415-0.576c-0.946,0.051-2.112-0.118-2.877,0.115
	C14.75,0.08,13.213,1.42,11.806,2.889c-0.027,0.089-0.004,0.227-0.117,0.229c-0.641,1.833-0.139,4.18-0.229,6.442
	c0.109,0.504,0.119,1.107,0.229,1.61c-1.114,0.343-2.468,0.446-3.795,0.576c-0.354,0.374-0.199,1.258-0.23,1.956
	c0.096,0.672,0.311,1.223,0.461,1.84c0.234,0.223,0.664,0.458,0.92,0.576c0.072,0.033,0.08,0.095,0.115,0.113
	c0.562,0.31,1.619,0.01,2.529,0.116c-0.152,2.283,0.285,4.519,0,6.557c0.008,0.378,0.328,0.44,0.23,0.921
	c0,1.111-0.074,2.299,0.232,3.105c-0.32,0.525-0.555,1.135-0.463,2.072c0.136,0.018,0.127,0.182,0.117,0.344
	c-0.084,0.544,0.717,0.203,0.574,0.807c0.182,0.526-0.477,0.212-0.461,0.574v1.036c0.592,0.329,1.631,0.21,2.531,0.229
	c1.013-0.483,2.439-0.552,3.107-1.381c0.512,0.271,1.02-0.016,1.38-0.229c-0.019-0.364,0.306-0.385,0.229-0.806
	c-0.004-0.379-0.193-0.572-0.115-1.035v-3.336c-0.229-2.646-0.052-5.7-0.344-8.284c0.99-0.121,2.139-0.086,2.876-0.46
	c0.398-0.52,0.421-1.42,0.575-2.186c0.197-0.262,0.246-0.674,0.23-1.15c0.213-0.246,0.076-0.843,0.115-1.265
	c-0.156-0.688-0.188-1.501-0.921-1.61c-0.985-0.272-2.28,0.687-3.337,0.344c0.055-1.31-0.327-2.703,0-3.91
	c0.832-0.205,1.613-0.458,2.416-0.691c1.146,0.034,2.225,0,2.991-0.345c0.436-0.944,0.62-2.142,0.69-3.451
	C24.132,2.182,24.274,1.809,24.114,1.737z M22.274,4.154h-1.726c-1.218,0.277-2.216,0.775-3.337,1.15
	c-0.268,0.076-0.309,0.382-0.574,0.46c-0.041,0.458-0.252,0.746-0.347,1.149c-0.088,1.661,0.149,2.998,0.115,4.603
	c0.131,0.293,0.283,0.562,0.461,0.806c0.089,0.025,0.226,0.002,0.229,0.115c1.33,0.064,2.453-0.08,3.452-0.346
	c0.001,1.152-0.302,2.001-0.576,2.877c-0.738,0.052-1.636,0.346-2.185,0.229c-0.309,0.19-0.414,0.583-0.691,0.805
	c-0.055,0.51,0.158,0.571,0,0.92c-0.225,0.158-0.062,0.706-0.229,0.921v1.727c0.095,0.324-0.162,0.297-0.114,0.574v4.026
	c-0.096,0.325,0.162,0.298,0.114,0.576v3.451c0.071,0.312-0.146,0.912,0.114,1.034c-0.078,0.421-0.459-0.023-0.92,0.115
	c-0.59,0.141-1.032,0.427-1.727,0.461c0.131-0.406,0.357-0.717,0.347-1.266c0.054-0.439-0.407-0.36-0.575-0.575
	c0.215-0.743,0.627-1.29,0.805-2.07c0.221-0.594,0.797-1.498,0.345-2.071c-0.583-0.121-0.581,0.34-0.921,0.461
	c-0.025,0.089-0.002,0.227-0.114,0.229c-0.026,0.089-0.003,0.227-0.114,0.23c0.012,0.139-0.168,0.07,0,0
	c0.024-0.091,0.002-0.228,0.114-0.23c0.026-0.09,0.003-0.228,0.114-0.229v-0.346c0.411-0.664,0.748-1.401,0.921-2.301
	c0.214-0.323,0.316-0.758,0.46-1.151c0.175-0.302,0.379-1.003,0.116-1.38c-0.576,0.039-0.887,0.342-1.036,0.805
	c-0.357-0.219,0.18-0.5,0.115-0.805c0.154-0.267,0.189-0.652,0.345-0.92c0.226-0.477,0.63-1.504,0-1.841
	c-0.487-0.027-0.683,0.239-0.806,0.574c-0.238,0.222-0.479,0.441-0.575,0.806c-0.417-0.081-0.159-0.839-0.229-1.266
	c-0.075-0.6,0.137-1.039,0-1.38c-0.625-0.923-2.26-0.122-3.566-0.345c-0.121-0.354-0.248-1.137-0.115-1.381
	c1.165-0.102,2.764,0.232,3.566-0.23c0.026-0.09,0.003-0.227,0.115-0.229c0.104-0.835-0.303-1.154-0.574-1.611
	c0.258-0.931,0.045-2.332,0.114-3.451c0.261-0.161,0.366-0.478,0.575-0.69c0.125-1.102,0.75-1.703,0.805-2.876
	c-0.305,0.001-0.678-0.063-0.69,0.23c-0.337-0.133-0.426,0.552-0.574,0.229c-0.126-0.624,0.274-0.723,0.345-1.15
	c0.668-0.482,1.352-0.947,2.07-1.38c1.943-0.282,5.184-0.519,6.789,0.229C22.562,3.138,22.185,3.412,22.274,4.154z"></path>
  </g>
  <g id="gplus" data-iconmelon="Jolly Icons:bb9db8fa4ee03b005f7a52b19f814e48">
    <g>
      <path fill-rule="evenodd" clip-rule="evenodd" d="M31.394,15.038c-0.548-0.108-0.604,0.275-1.114,0.202
		c-0.603-0.189-1.537-0.299-2.227-0.1v-1.215c-0.122-0.688-0.207-1.412-0.203-2.228c-0.128-0.464-0.106-1.077-0.203-1.315
		c-0.094-0.238-0.346-0.299-0.402-0.506h-0.608c-1.036,0.381-1.759,1.076-2.835,1.417c-0.291,0.483-0.188,1.364-0.202,2.125
		c-0.148,0.526-0.093,1.256-0.101,1.924h-2.023c-0.188,0.309-0.481-0.118-0.811,0c-0.002,0.167-0.28,0.056-0.304,0.202
		c-0.145,0.023-0.171,0.167-0.304,0.202c-0.158,0.466,0.107,0.656,0.101,1.215c-0.129,0.782-0.196,1.624-0.201,2.53
		c0.208,0.163,0.255,0.486,0.404,0.708c0.745,0.376,2.117,0.167,3.036,0.102c-0.054,1.369,0.142,2.49,0.305,3.644
		c0.384,0.258,0.632,0.649,1.012,0.912c0.621-0.055,1.465,0.115,1.923-0.102c0.2,0.241,0.705,0.239,1.011,0.102
		c0.476-0.444,0.301-1.314,0.305-2.127c0.005-0.84,0.064-1.744,0.102-2.429c0.654-0.021,1.26-0.089,1.822-0.202
		c0.427,0.113,0.537,0.543,1.215,0.404c0.386-0.254,0.684-0.597,0.607-1.315c0.051-0.589,0.149-1.133,0.1-1.821
		c0.168-0.339,0.035-0.979,0.203-1.316C31.928,15.584,31.73,15.241,31.394,15.038z M22.182,17.062
		c0.137,0.066,0.189,0.217,0.203,0.405C22.069,17.516,22.022,17.213,22.182,17.062z M22.283,17.873V17.67
		c0.086,0.02,0.096-0.039,0.102-0.101C22.581,17.528,22.532,18.03,22.283,17.873z M25.117,16.354
		c0.22-0.017,0.046,0.358,0.102,0.506h-0.404C24.766,16.543,25.087,16.593,25.117,16.354z M30.076,18.581
		c-0.604-0.228-1.112,0.048-1.82,0c-0.225,0.056-0.146-0.193-0.305-0.203h-1.113c0.054-0.149,0.15-0.255,0.203-0.403
		c-0.43-0.127-0.271,0.336-0.506,0.403v4.657c-0.215-0.09-0.3-0.309-0.608-0.305c0.06-0.362-0.116-0.489-0.202-0.708
		c0.162-0.579,0.443-1.04,0.607-1.62c-0.043-0.361-0.322-0.486-0.708-0.506c0.03-0.268-0.212-0.261-0.405-0.303v-0.607
		c-0.149-0.385,0.453-0.021,0.303-0.405c0.008-0.345-0.375-0.3-0.707-0.304c0.085-0.217,0.249-0.357,0.607-0.303
		c0.215-0.049,0.192,0.144,0.202,0.303c0.081,0.088,0.277,0.061,0.303,0.203c0.347,0.042,0.305-0.304,0.507-0.406
		c-0.047-0.594-0.143-1.14-0.406-1.518c-0.112-0.484,0.156-0.807-0.303-1.012c-0.318-0.015-0.348,0.259-0.404,0.506
		c-0.238-0.211-0.107-0.911,0.201-0.91c-0.076-0.837,0.734-1.268,0.405-2.025c-0.491-0.086-0.574,0.236-0.708,0.507
		c-0.232-0.207-0.036-0.841-0.102-1.215c0.05-0.319-0.182-0.357-0.102-0.709c0.426-0.182,0.892-0.323,1.215-0.606
		c0.118-0.018,0.181,0.021,0.203,0.101c-0.076,1.763,0.123,3.251,0.102,4.96c0.285,0.152,0.698,0.179,1.111,0.202
		c0.387,0.12,0.88,0.134,1.217,0.303h0.707c0.284-0.053,0.526-0.148,0.811-0.202C30.184,17.068,30.227,17.922,30.076,18.581z"></path>
      <path fill-rule="evenodd" clip-rule="evenodd" d="M12.263,26.779H12.06C12.086,26.906,12.262,26.883,12.263,26.779z"></path>
      <path fill-rule="evenodd" clip-rule="evenodd" d="M12.466,26.679h-0.203v0.101C12.381,26.797,12.443,26.758,12.466,26.679z"></path>
      <path fill-rule="evenodd" clip-rule="evenodd" d="M11.25,13.521c0.162-0.176,0.379-0.297,0.607-0.405
		c0.103-0.135,0.097-0.377,0.305-0.404c0.258-1.059,0.287-2.345,0.304-3.645c-0.167-0.88-0.42-1.673-0.608-2.53
		c-0.291-0.146-0.39-0.487-0.607-0.708c-0.525-0.354-1.19-0.564-1.821-0.81C7.742,4.883,6.441,5.135,5.887,6.131
		C5.812,6.609,6.031,6.797,6.189,7.043C6.062,7.184,5.656,7.048,5.785,7.447c0.057,0.328-0.068,0.471-0.102,0.709
		c-0.149,2.308,0.37,3.949,1.416,5.061c0.508,0.168,0.932,0.42,1.52,0.506c0.719-0.058,1.405-0.146,2.227-0.101
		C10.863,13.472,11.091,13.529,11.25,13.521z M10.138,12.104c-0.714,0.029-1.646-0.16-1.822,0.404
		c-0.61-0.639-0.946-1.551-1.216-2.53C7.166,8.832,6.926,7.993,6.999,6.84c0.159-0.177,0.2-0.299,0.405-0.405
		c0.329-0.17,0.712-0.083,1.215-0.101c0.45,0.258,0.734,0.683,1.113,1.012c0.148-0.056,0.523,0.119,0.506-0.102
		c0.387,0.424,0.682,0.938,0.81,1.62v2.024C10.768,11.315,10.463,11.72,10.138,12.104z"></path>
      <path fill-rule="evenodd" clip-rule="evenodd" d="M17.223,19.492c-0.703-0.849-1.662-1.441-2.632-2.024
		c-0.454-0.321-1.001-0.552-1.519-0.811c-0.376-0.433-1.079-0.538-1.113-1.314c0.223-0.282,0.653-0.36,1.013-0.507
		c0.225-0.281,0.563-0.448,0.81-0.709c0.692-0.32,1.145-0.879,1.618-1.416c0.295-0.602,0.351-1.15,0.406-1.924
		c0.021-0.293,0.106-0.533,0.101-0.81c-0.025-1.335-0.568-2.568-1.012-3.441c0.3-0.375,0.559-0.79,0.708-1.315
		c0.209-0.736,0.29-1.601,0.405-2.43c-0.24-0.57,0.099-1.718-0.405-2.024h-0.606c-0.146,0.057-0.247,0.158-0.305,0.304
		c-0.678,1.077-1.546,1.963-2.935,2.328c-0.679-0.131-1.202-0.416-1.923-0.506H7.303c-0.717,0.262-1.32,0.636-2.125,0.81
		c-1.956,1.755-3.229,4.192-3.745,7.39v1.518c0.15,0.153,0.163,0.444,0.202,0.708c0.688,1.135,1.862,1.782,3.036,2.43
		c0.759,0.152,1.249,0.573,2.126,0.607c0.277,0.162,0.67,0.208,1.113,0.202c0.488-0.015,0.449,0.496,0.709,0.709
		c-0.834,0.144-1.598,0.358-2.631,0.304c-0.324,0.217-0.801,0.28-1.114,0.505C4.448,18.223,4.252,18.6,3.76,18.683
		c-0.58,0.566-1.24,1.052-1.821,1.619c-0.087,0.351-0.315,0.562-0.506,0.81c-0.079,0.394-0.319,0.626-0.506,0.911
		c-0.226,0.719-0.665,1.226-0.81,2.024c-0.178,0.615-0.133,1.704,0,2.328c0.572,1.484,1.396,2.72,2.631,3.543
		c0.63,0.247,1.311,0.443,2.126,0.506c0.562,0.295,1.25,0.618,2.125,0.708c0.958,0.099,2.019-0.148,2.937,0.102
		c0.338-0.2,0.746-0.333,1.213-0.405c0.971-0.649,2.18-1.061,3.139-1.721c1.06-0.559,1.824-1.416,2.53-2.328
		c0.228-0.852,0.454-1.705,0.708-2.529c0.045-1.604,0.233-3.236-0.201-4.556C17.245,19.672,17.205,19.609,17.223,19.492z
		 M3.254,12.307c0.055-0.157,0.105-0.008,0.103,0.101C3.303,12.562,3.25,12.412,3.254,12.307z M15.906,24.654
		c-0.15,0.02-0.092,0.244-0.101,0.404c-0.704,1.355-1.768,2.35-3.037,3.139c-1.229,0.12-1.993,0.705-3.139,0.91
		c-0.796-0.021-1.535,0.017-2.124,0.203c-1.547-0.242-2.959-0.619-3.847-1.52c-0.333-0.225-0.445,0.212-0.708,0
		c-0.434-0.545-0.795-1.161-1.113-1.821c-0.103-1.282,0.189-2.173,0.303-3.239c0.331-0.479,0.695-0.924,1.113-1.315
		c0.689-1.571,1.875-2.646,3.543-3.238c0.234,0.031,0.389-0.017,0.506-0.103C7.76,18.26,8.58,18.08,8.619,18.683
		c0.12,0.424-0.428,0.181-0.506,0.404C7.82,19.1,7.45,19.031,7.303,19.188C6.51,19.374,6.326,20.168,5.38,20.2
		c-0.43,0.481-0.681,1.142-1.112,1.62c-0.074,0.229-0.092,0.517-0.204,0.709c-0.177,0.158-0.132,0.541-0.304,0.707
		c0.014,1.166-0.182,2.052,0,3.139c0.266,0.577,0.974,0.715,1.418,1.113c0.729,0.114,1.596,0.09,2.125,0.404
		c0.932-0.012,1.723-0.166,2.733-0.102c0.753-0.26,1.312-0.713,2.023-1.012c0.022-0.078,0.085-0.117,0.203-0.101
		c0.022-0.079,0.085-0.118,0.203-0.102c-0.011-0.122,0.146-0.062,0,0v0.102c0.54,0.027-0.036-0.433,0.506-0.405
		c0.16-0.245,0.361-0.447,0.606-0.607c0.349-0.428,0.636-0.916,0.91-1.416v-2.531c-0.124-0.516-0.373-0.908-0.605-1.316
		c-0.148-0.256-0.538-0.271-0.709-0.506c-0.16-0.245-0.361-0.447-0.607-0.606c-0.482-0.362-0.898-0.789-1.418-1.113
		c-0.227-0.516-0.717-0.768-0.91-1.316c-0.318-0.457-0.676-0.876-0.81-1.518H8.214c-0.823-0.157-1.466-0.49-2.226-0.71
		c-0.735-0.75-1.525-1.445-1.925-2.529V9.775c-0.071-0.456-0.113-0.9-0.101-1.316c0.068-2.29,1.219-3.848,2.834-4.655
		c0.967,0.056,1.47-0.354,2.329-0.405c0.237,0.132,0.698,0.043,0.91,0.202c0.646,0.165,1.033,0.585,1.62,0.81
		c0.317,0.087,0.426,0.383,0.81,0.406c0.194,0.21,0.388,0.421,0.708,0.505c0.088-0.458-0.111-0.631-0.405-0.708
		c0.517-0.294,0.953-0.667,1.519-0.911c0.043,0.515-0.155,0.79-0.304,1.114c0.06,0.43-0.072,0.668-0.101,1.012
		c-0.014,0.249-0.016,0.487,0.101,0.606c0.335,0.151-0.21,0.248-0.101,0.507c0.462,0.82,0.715,1.85,0.605,3.238
		c-0.1,0.338-0.18,0.696-0.303,1.013c-0.208,0.366-0.145,0.545-0.202,0.911c-0.368,0.441-0.972,0.648-1.315,1.113
		c-0.413,0.396-0.786,0.834-1.418,1.012c-0.133,0.474-0.575,0.639-0.81,1.012c0.164,0.311,0.176,0.769,0.305,1.114
		c0.194,0.403,0.476,0.118,0.708,0.405c0.326,0.449,0.688,0.863,1.113,1.215c0.244,0.127,0.612,0.13,0.811,0.303
		c0.5,0.545,0.998,1.093,1.619,1.519c0.395,0.786,0.724,1.638,0.91,2.632V24.654z M12.162,20.504c0.767,0.548,1.531,1.1,1.416,2.531
		c0.029,0.535-0.477,0.535-0.606,0.91c-0.261,0.246-0.479,0.534-0.709,0.811c-0.56,0.216-0.883,0.668-1.518,0.81
		c-0.245,0.126-0.493,0.251-0.81,0.304c-0.2,0.172-0.627,0.115-0.81,0.303c-0.853-0.04-1.587,0.034-2.329,0.102
		c-0.592-0.387-0.909-1.048-1.316-1.619v-1.619c0.676-1.046,1.535-1.906,2.633-2.531C9.344,20.398,10.949,20.312,12.162,20.504z
		 M9.732,18.783h0.606C10.35,19.025,9.113,18.841,9.732,18.783z"></path>
    </g>
  </g>
  <g id="twitter" data-iconmelon="Jolly Icons:5f754e3e509aab10a161a5a6251f89c4">
    <g>
      <path fill-rule="evenodd" clip-rule="evenodd" d="M20.236,9.845c0.222,0.184,0.387,0.423,0.707,0.506
		c0.137,0.301,0.429,0.446,0.809,0.504c0.063-0.204,0.471-0.065,0.504-0.302c0.236-0.032,0.227-0.312,0.404-0.404
		c-0.025-0.749-0.176-1.372-0.505-1.816C21.122,7.756,19.872,8.385,20.236,9.845z"></path>
      <path fill-rule="evenodd" clip-rule="evenodd" d="M30.027,7.322c-0.504,0-1.009,0-1.514,0c0.192-0.48,0.465-0.881,0.707-1.312
		c0.074-0.597,0.346-0.999,0.303-1.716c0.176-0.227,0.239-0.567,0.402-0.808c0.142-0.196,0.331-0.649,0.102-0.908
		c-0.069-0.301-0.401-0.338-0.807-0.303c-0.12,0.05-0.23,0.107-0.303,0.202c-0.609,0.59-1.061,1.38-1.717,1.917
		c-0.012,0.012-0.084,0-0.102,0c-0.117,0.007-0.043,0.064-0.101,0.102c-0.199,0.132-0.351,0.207-0.503,0.303
		c-0.388,0.24-0.745,0.606-1.213,0.706c-0.721-0.288-1.576-0.443-2.523-0.504c-1.575,0.14-3.137,0.294-4.138,1.009
		c-1.24,0.477-2.011,1.42-2.927,2.221c-0.068,0.437-0.467,0.543-0.504,1.01c-0.007,0.062-0.017,0.119-0.102,0.101
		c0.059,0.327-0.068,0.469-0.101,0.706c-0.001,0.182,0.271,0.588,0,0.707c-1.12-0.162-2.023-0.857-2.928-1.312
		c-0.978-0.49-1.999-0.822-2.825-1.514C8.262,7.489,7.521,6.816,6.814,6.111c-0.283-0.425-0.738-0.675-0.91-1.212
		C5.389,4.676,5.666,3.657,4.896,3.688c-0.43-0.059-0.47,0.272-0.605,0.505C4.195,4.502,3.799,4.51,3.785,4.899
		C3.779,4.962,3.771,5.02,3.685,5.001c-0.231,1.483-0.719,2.714-0.706,4.44c0.175,0.565,0.475,1.006,0.807,1.413
		c-0.569,0.069-0.975,0.303-1.211,0.707c-0.082,1.462,0.514,2.244,1.01,3.128c0.183,0.524,0.479,0.934,0.808,1.312
		c0.023,0.312,0.28,0.393,0.403,0.605c0.024,0.144,0.166,0.17,0.202,0.304c-0.055,0.145,0.394,0.246,0.101,0.302
		c-0.562,0.178-1.385,0.096-1.716,0.506c-0.149,0.379-0.149,1.134,0,1.514c0.046,0.323,0.384,0.355,0.403,0.705
		c0.68,0.567,1.473,1.019,2.222,1.516c0.782,0.226,1.649,0.367,2.522,0.504c-0.139,0.467-0.46,0.751-0.807,1.01
		c-1.062,0.519-2.519,0.645-3.736,1.009c-0.756,0.052-1.301,0.313-2.118,0.304c-0.452,0.173-1.163,0.102-1.515,0.303
		c-0.166,0.094-0.138,0.131-0.303,0.302c-0.182,0.56,0.151,1.007,0.605,1.211c-0.007,0.344,0.297,0.377,0.506,0.505
		c0.12,0.25,0.345,0.395,0.604,0.505c0.742,0.637,1.727,1.033,2.625,1.515c1.129,0.249,2.245,0.513,3.432,0.706
		c1.22,0.159,2.589,0.169,3.835,0.302c0.438,0,0.875,0,1.312,0c0.696,0.18,1.677,0.074,2.522,0.102
		c0.131-0.139,0.439-0.1,0.707-0.102c0.711-0.365,1.629-0.523,2.221-1.008c0.783-0.328,1.348-0.874,2.12-1.211
		c1.18-1.042,2.638-1.804,3.431-3.23c0.279-0.259,0.479-0.599,0.607-1.01c0.359-0.212,0.523-0.619,0.806-0.908
		c0.551-0.559,0.963-1.259,1.413-1.918c0.436-0.676,0.785-1.436,1.212-2.119c-0.013-0.552,0.416-0.66,0.403-1.211
		c0.264-0.309,0.241-0.902,0.506-1.212c-0.046-0.347,0.039-0.565,0.101-0.808c0.063-1.745-0.065-3.299-0.405-4.642
		c0.801-0.211,1.609-0.411,2.222-0.808c0.718-0.252,1.361-0.793,1.11-1.716C31.637,7.328,30.707,7.45,30.027,7.322z M27.303,13.378
		c-0.209,1.171-0.839,1.921-1.414,2.726c0.08,0.516-0.142,0.732-0.1,1.211c-0.216,0.424-0.391,0.889-0.506,1.413
		c-0.276,0.362-0.452,0.825-0.705,1.21c-0.5,0.747-1.06,1.432-1.615,2.121c-0.516,0.764-1.243,1.313-1.818,2.018
		c-0.572,0.672-1.283,1.206-1.916,1.817c-0.645,0.23-1.211,0.54-1.716,0.908c-0.316,0.122-0.63,0.245-0.908,0.404
		c-0.241,0.197-0.681,0.195-0.909,0.403c-1.48,0.201-3.134,0.23-4.844,0.201c-1.404-0.143-2.881-0.215-4.139-0.505
		c-1.258-0.257-2.059-0.97-3.129-1.412c0.208-0.329,0.864-0.212,1.312-0.303c0.042-0.227,0.535-0.003,0.604-0.202
		c0.352,0.081,0.389-0.15,0.708-0.101c0.768-0.274,1.676-0.411,2.321-0.808c0.385-0.188,0.553-0.59,0.908-0.807
		c0.045-0.258,0.141-0.465,0.303-0.606c0.064-0.374,0.273-0.601,0.202-1.11c0.151-0.285,0.407-0.466,0.403-0.908
		c-0.102-0.201-0.175-0.432-0.403-0.505c-0.036-0.267-0.515-0.091-0.605-0.302c-0.347,0.043-0.566-0.041-0.808-0.102
		c-0.209-0.06-0.663,0.125-0.706-0.102C6.677,20.008,6.053,19.454,5.3,19.03c0.586-0.355,1.405-0.479,1.815-1.009
		c0.703-0.105,1.441-0.177,1.515-0.909c0-0.975-1.05-0.9-1.815-1.11c-1.054-0.898-1.627-2.276-2.423-3.432
		c0.324-0.214,0.769-0.307,1.009-0.605c0.617,0.08,0.735-0.342,0.908-0.706c0.025-0.665-0.453-0.825-0.809-1.11
		C5.148,9.861,4.854,9.518,4.593,9.14c-0.004-1.114-0.029-2.25,0.101-3.23C4.779,5.891,4.789,5.948,4.795,6.01
		c0.308,0.602,0.761,1.055,1.109,1.615c0.725,0.486,1.261,1.162,2.12,1.515c0.616,0.562,1.509,0.846,2.12,1.413
		c0.818,0.358,1.578,0.775,2.32,1.211c0.912,0.266,1.438,0.916,2.727,0.807c0.271-0.132,0.536-0.271,0.807-0.404
		c0.352-0.62-0.079-1.469,0.201-2.22c0.348-0.897,1.086-1.405,1.716-2.019c0.395-0.211,0.755-0.457,1.11-0.707
		c0.473-0.133,0.918-0.293,1.312-0.504c0.512-0.027,0.971-0.105,1.414-0.201c0.57,0,1.143,0,1.715,0
		c0.333,0.07,0.646,0.162,1.01,0.201c0.283,0.187,0.517,0.426,0.907,0.504c1.075,0.945,1.729,2.311,1.919,4.139
		C27.135,12.02,27.373,12.551,27.303,13.378z M27.705,5.707c-0.175,0.464-0.314,0.963-0.807,1.11
		c-0.024-0.144-0.166-0.17-0.201-0.302C26.681,6.23,26.982,6.262,27.1,6.111C27.322,5.996,27.435,5.773,27.705,5.707
		C27.696,5.586,27.853,5.645,27.705,5.707z"></path>
    </g>
  </g>
  <g id="graph" data-iconmelon="Jolly Icons:2252caca92a0223a1d1c9c5a5e841b65">
    <g>
      <path fill-rule="evenodd" clip-rule="evenodd" d="M3.485,17.41c0.478,0.292,0.928,0.439,1.43,0.357
		c0.122-0.02,0.18-0.135,0.269-0.179c0.121-0.059,0.253-0.016,0.357-0.089c0.086-0.062,0.176-0.251,0.269-0.358
		c0.351-0.402,0.583-0.772,0.625-1.341c1.069,0.168,2.778,0.221,3.218-0.536c0.224,0.403,0.635,0.617,1.162,0.715
		c0.99,0.065,1.5-0.348,1.878-0.894c0.202-0.889-0.104-1.642-0.448-2.234c0.312-0.404,0.717-0.715,0.984-1.162
		c0.396-0.319,0.565-0.864,0.983-1.162c0.594,0.392,1.429,0.019,1.966-0.179c0.219,0.377,0.475,0.717,0.716,1.073
		c0.187,0.111,0.336,0.26,0.446,0.447c0.056,0.242,0.374,0.222,0.358,0.536c-0.035,1.047,0.192,1.833,0.625,2.414
		c0.655,0.356,1.448,0.236,2.056-0.09c0.138-0.25,0.271-0.504,0.447-0.714c0.027-0.564-0.014-1.059-0.09-1.52
		c1.148-1.235,2.216-2.551,3.666-3.486c0.121,0.294,0.473,0.361,0.805,0.447c1.289,0.067,1.961-0.482,2.412-1.252
		c0.143-1.265-0.097-2.47-0.982-2.95c-0.689,0.023-1.049-0.13-1.699,0c-0.654,0.389-1.13,0.956-1.52,1.609v0.894
		c-0.614,0.547-1.229,1.096-1.877,1.609c-0.558,0.664-1.099,1.344-1.699,1.967c-0.207-0.22-0.705-0.285-0.982-0.179
		c-0.077-0.221-0.331-0.264-0.446-0.447c-0.093-0.235-0.354-0.3-0.447-0.536c-0.362-0.265-0.661-0.591-0.894-0.983
		c0.238-0.673,0.075-1.672-0.358-1.966c-0.313-0.168-0.757-0.038-1.161-0.089c-0.258-0.034-0.475-0.2-0.715-0.179
		c-0.439,0.127-0.78,0.353-1.073,0.625c-0.126,0.53-0.289,1.023-0.268,1.698c-0.372,0.409-0.658,0.878-0.984,1.341
		c-0.316,0.451-0.617,0.929-0.983,1.34c-0.256-0.28-0.589-0.483-1.162-0.446c-1.114,0.205-1.633,1.35-1.34,2.682
		c-0.881,0.073-1.875,0.032-2.682,0.178c-0.184-0.353-0.36-0.711-0.805-0.804c-1.136-0.063-1.596,0.55-2.323,0.894
		c-0.205,0.491-0.436,1.05-0.358,1.698C2.921,16.677,3.264,17.106,3.485,17.41z M25.207,6.773c0.285-0.131,0.496-0.338,0.982-0.269
		c0.145,0.37,0.283,0.992,0.09,1.43c-0.305,0.083-0.525,0.25-0.984,0.179C25.196,7.736,25.191,7.263,25.207,6.773z M19.217,12.852
		c0.207,0.091,0.186,0.411,0.18,0.715C19.189,13.475,19.211,13.155,19.217,12.852z M15.73,8.561
		c-0.067,0.289-0.246,0.467-0.536,0.536C15.146,8.692,15.326,8.514,15.73,8.561z M10.547,13.12c0.216,0.26,0.465,0.488,0.536,0.894
		c0.107-0.01,0.055,0.13,0,0c-0.12-0.029-0.171-0.127-0.358-0.09C10.629,13.692,10.508,13.485,10.547,13.12z M4.648,15.175
		c0.372,0.027,0.156,0.821,0,0.894C4.322,15.995,4.459,15.279,4.648,15.175z"></path>
      <path fill-rule="evenodd" clip-rule="evenodd" d="M31.373,12.941c-1.603-0.616-2.897,0.452-2.681,2.234
		c-1.415,1.506-3.124,2.717-4.738,4.023c-0.182-0.206-0.741-0.033-1.071-0.09c-0.019,0.133-0.217,0.082-0.359,0.09
		c-0.148,0.148-0.43,0.165-0.535,0.357c-0.258,0.04-0.279,0.316-0.625,0.268c-1.49-0.239-2.832-0.625-3.935-1.251
		c-0.115-0.569-0.305-1.065-0.625-1.43c-0.223-0.045-0.367-0.169-0.536-0.268h-1.252c-0.247,0.14-0.496,0.278-0.804,0.357
		c-0.111,0.187-0.261,0.336-0.447,0.447c-0.114,0.212-0.229,0.426-0.357,0.625c-0.021,0.467,0.001,0.893,0.09,1.252
		c-1.269,0.847-2.406,1.825-3.487,2.86c-0.191,0.195-0.245,0.528-0.446,0.714c-0.569-0.318-1.65-0.193-2.146,0.089
		c-0.617-0.395-1.263-0.763-1.877-1.162c-0.542-0.472-1.155-0.871-1.698-1.341c0.067-0.752-0.104-1.266-0.269-1.788
		c-0.148-0.023-0.292-0.257-0.446-0.358c-0.011-0.006-0.2-0.095-0.179-0.089c-1.002-0.286-2.363,0.277-2.771,0.805
		C0.17,19.607,0.039,19.804,0,20.091c0.017,0.49,0.165,0.848,0.268,1.251c0.221,0.315,0.233,0.84,0.536,1.073
		c0.069,0.02,0.176,0.001,0.179,0.089c0.987,0.062,1.528-0.319,2.235-0.536c0.364,0.172,0.456,0.616,0.894,0.715
		c0.223,0.313,0.51,0.562,0.893,0.715c0.551,0.523,1.411,0.735,1.968,1.251c-0.058,0.742,0.094,1.277,0.357,1.698
		c0.743,0.679,2.886,0.641,3.129-0.446c0.005-0.055,0.013-0.105,0.089-0.089c-0.016-0.461,0.055-1.009-0.089-1.341
		c0.22-0.197,0.392-0.442,0.715-0.537c0.167-0.235-0.234-0.301,0.089-0.536c0.293-0.154,0.422-0.472,0.717-0.625
		c0.309-0.167,0.413-0.54,0.803-0.626c0.138-0.339,0.577-0.375,0.716-0.714c0.401-0.075,0.492-0.461,0.894-0.537
		c0.381,0.007,0.625,0.15,1.072,0.09c0.199-0.069,0.349-0.188,0.625-0.179c0.098-0.201,0.439-0.157,0.537-0.357
		c0.242-0.056,0.223-0.374,0.537-0.358c1.164,0.712,2.742,1.011,4.201,1.43c0.24,0.146,0.424,0.35,0.535,0.625
		c0.105,0.283,0.465,0.312,0.625,0.537c1.732,0.182,2.547-0.554,2.325-2.324c0.302-0.353,0.794-0.517,1.072-0.894
		c0.508-0.148,0.69-0.62,1.161-0.804c0.312-0.345,0.68-0.631,1.073-0.894c0.106-0.221,0.306-0.35,0.537-0.447
		c0.148-0.179,0.239-0.415,0.536-0.447c0.249,0.198,0.485,0.41,0.983,0.357c0.589-0.065,0.97-0.341,1.341-0.625
		C32.226,15.763,32.117,13.625,31.373,12.941z M8.759,25.187c-0.2-0.039-0.035-0.44-0.089-0.625h0.268
		C8.996,24.887,8.877,25.037,8.759,25.187z M23.149,20.717c-0.144,0.025-0.153-0.084-0.267-0.089
		c-0.028-0.108,0.258-0.308,0.267-0.09V20.717z M30.39,14.55c0.122,0.027,0.075,0.224,0.089,0.357
		C30.273,14.882,30.275,14.668,30.39,14.55z"></path>
    </g>
  </g>
  <g id="cloud" data-iconmelon="Jolly Icons:de54190eb49e7a330a0729b375462ff2">
    <g>
      <path fill-rule="evenodd" clip-rule="evenodd" d="M21.323,6.845c-0.004,0.123,0.042,0.195,0.089,0.266
		c0.484-0.019,1.067,0.061,1.42-0.089C22.758,6.571,21.658,6.748,21.323,6.845z"></path>
      <path fill-rule="evenodd" clip-rule="evenodd" d="M17.948,11.107c-0.549,0.25-0.879,0.718-1.332,1.066
		c-0.221,0.524-0.815,1.031-0.532,1.776c0.198,0.128,0.428,0.223,0.799,0.178c0.418-0.352,0.552-0.988,0.799-1.51
		c0.279-0.521,0.736-0.863,0.799-1.599c-0.168,0.02-0.195-0.1-0.355-0.089C18.125,11.047,17.97,11.011,17.948,11.107z"></path>
      <path fill-rule="evenodd" clip-rule="evenodd" d="M28.872,15.459c-0.51-0.258-1.192-0.306-1.866-0.178
		c0.498-1.16,1.044-2.271,1.244-3.73V8.888c-0.142-0.924-0.471-1.66-0.799-2.398c-0.459-0.547-0.996-1.019-1.51-1.509
		c-0.694-0.283-1.339-0.616-2.22-0.711H21.5c-0.148,0.149-0.521,0.071-0.799,0.089c-0.834,0.23-1.65,0.481-2.398,0.8
		c-0.644,0.451-1.275,0.916-1.865,1.421c-0.19,0.372-0.565,0.56-0.71,0.976c-0.403,0.189-0.408,0.777-0.799,0.978
		c-0.154-0.499-0.739-0.564-1.154-0.799c-3.513-0.326-6.186,0.905-7.992,2.575c-0.086,0.358-0.345,0.544-0.533,0.799
		c-0.035,0.321-0.119,0.592-0.267,0.8v2.131c0.103,0.105,0.101,0.314,0.089,0.533c0.156,0.228,0.065,0.704,0.266,0.888
		c-0.073,0.251,0.125,0.23,0.089,0.444c-0.012,0.118,0.299,0.331,0.089,0.355c-0.584-0.022-1.121,0.004-1.599,0.089
		c-2.153,1.162-3.356,3.274-3.907,6.039c-0.04,0.721,0.038,1.323,0.088,1.953c0.145,0.152,0.269,0.323,0.267,0.622
		c0.982,1.445,2.513,2.342,4.795,2.486c0.678,0.027,1.288-0.014,1.865-0.088c0.477,0.115,1.01,0.173,1.509,0.266
		c5.104,0.274,10.181-0.073,15.273-0.089c0.94-0.333,2.333-0.213,3.464-0.355c0.017-0.131,0.215-0.082,0.355-0.089
		c0.058-0.119,0.189-0.166,0.355-0.177c0.106-0.22,0.304-0.348,0.532-0.444c0.505,0.06,0.729-0.16,1.155-0.178
		c0.516-0.401,1.018-0.816,1.421-1.332c0.429-0.725,0.734-1.575,0.887-2.575c0.077-1.824-0.045-3.447-0.621-4.618
		C30.666,16.862,30.013,15.917,28.872,15.459z M7.736,16.436c-0.079,0.055-0.159,0.107-0.178,0
		C7.581,16.324,7.736,16.346,7.736,16.436z M29.404,21.586c-0.199,0.246-0.346,0.542-0.444,0.888
		c-0.22,0.254-0.406,0.542-0.533,0.888c-0.515,0.402-0.733,1.102-1.421,1.332c0.172-0.216,0.085-0.743,0-0.977
		c-0.068-0.02-0.175-0.003-0.177-0.089c-0.966-0.018-1.268,0.627-1.333,1.51h-1.42c-0.197-0.194,0.087-0.362,0-0.71
		c-0.175-0.654-0.162-1.496-0.622-1.865c-1.239,0.063-1.743,0.862-2.309,1.598c-0.034,0.508,0.007,0.939,0.355,1.066
		c-0.123,0.202-0.618,0.033-0.888,0.088c0.059-0.297,0.276-0.435,0.356-0.71c-0.374-0.262-0.613,0.238-0.8,0.444H20.08
		c0.005,0.122-0.042,0.195-0.088,0.266c-0.139-0.023-0.062-0.195,0-0.266h0.088c0.258-0.63,0.648-1.128,0.977-1.688
		c0.273-0.508,0.973-1.024,0.622-1.865c-1.04,0.027-1.172,0.959-1.866,1.333c-0.53,0.564-1.044,1.146-1.509,1.776
		c-0.074,0.222-0.117,0.476-0.089,0.8c-2.312,0.232-4.894,0.197-7.281,0.355c0.018-0.446,0.289-0.839,0.088-1.243
		c-0.07-0.021-0.176-0.003-0.178-0.089c-0.881,0.096-1.158,0.795-1.51,1.42H8.713c0.141-0.598,0.399-1.08,0.621-1.598
		c-0.036-0.198,0.049-0.427,0-0.622c-0.057-0.228-0.102-0.23-0.267-0.354c-0.924,0.2-1.176,1.073-1.775,1.598
		c-0.076,0.339-0.264,0.565-0.356,0.888c-0.329,0.063-0.38-0.152-0.709-0.089c0.041-0.885,0.905-1.392,0.709-2.22
		c0-0.117-0.155-0.081-0.177-0.177c-0.654,0.026-1.001,0.361-1.333,0.71c-0.236-0.271,0.233-0.593,0.089-1.065
		c-0.105-0.043-0.201-0.095-0.266-0.178c-1.101,0.203-1.625,0.98-2.043,1.865C2.908,24.3,3.33,23.963,3.295,23.628
		c0.223-0.221,0.252-0.636,0.445-0.888c0.25-0.609,0.645-1.072,0.977-1.598c-0.049-0.366-0.33-0.498-0.799-0.444
		c-0.688,0.229-1.045,0.79-1.421,1.332c-0.197-0.145,0.125-0.521,0.178-0.71c0.149-0.235,0.206-0.564,0.355-0.799
		c0.237-0.532,0.689-0.85,0.888-1.421c-0.437-0.172-0.878,0.345-1.154,0.622c-0.17-0.063,0.018-0.507,0.178-0.533
		c-0.023-0.318,0.265-0.325,0.265-0.622c0.779-0.732,1.561-1.459,2.843-1.687c0.327-0.002,0.392,0.258,0.533,0.444
		c0.153-0.004,0.228,0.069,0.266,0.178c0.055,0.124,0.342,0.013,0.356,0.177c0.345-0.069,0.499-0.33,0.799-0.443
		c0.07-0.404,0.125-0.822,0.266-1.155c-0.024-0.359-0.282-0.487-0.177-0.977c0.106-0.485,0.426-0.757,0.533-1.243
		c-0.025-0.392-0.47,0.048-0.533-0.178c-0.035-0.538,0.379-0.627,0.622-0.888c0.171-0.362,0.611-0.454,0.71-0.888
		c-0.005-0.351-0.182-0.529-0.533-0.533c0.185-0.318,0.438-0.57,0.622-0.888c1.311-0.497,3.918-1.196,5.151-0.178
		c-0.02,1.056-0.146,2.218,0.798,2.309c0.429-0.016,0.584-0.304,0.623-0.71c0.104,0.074,0.238,0.117,0.443,0.088
		c0.493-0.159,0.668-0.634,0.889-1.066c0.174-0.506,0.572-0.79,0.799-1.243c0.384-0.266,0.626-0.676,1.066-0.888
		c0.233-0.447,1.015-0.346,1.065-0.977c0.024-0.41-0.292-0.479-0.534-0.622c-0.66-0.069-0.893,0.291-1.332,0.444
		c-0.504,0.354-0.942,0.773-1.42,1.154c0.01,0.107-0.129,0.055,0,0c-0.022-0.318,0.267-0.325,0.267-0.621
		c0.29-0.035,0.275-0.376,0.443-0.533c0.463-0.278,0.835-0.646,1.421-0.799c0.146-0.21,0.521-0.189,0.71-0.355
		c0.279-0.105,0.67-0.1,0.889-0.266c0.115,0.122,0.385,0.088,0.622,0.089c0.207-0.029,0.366-0.107,0.533-0.178h1.598
		c0.898,0.107,1.495,0.519,2.043,0.977c0.369,0.549,0.64,1.195,0.799,1.953v1.776c-0.164,1.82-0.945,3.021-1.51,4.44v0.711
		c0,0.089,0.072,0.105,0.088,0.177c0.025,0.183,0.239,0.177,0.356,0.266c0.33-0.094,0.287,0.187,0.444,0.267
		c0.251-0.045,0.377-0.215,0.621-0.267h1.42c0.076,0.132,0.287,0.129,0.445,0.178c0.037,0.111,0.115,0.182,0.266,0.178
		c0.173,0.42,0.516,0.668,0.711,1.065c0.214,0.378,0.356,0.827,0.533,1.243c0.014,0.105-0.015,0.252,0.089,0.267
		C29.707,20.114,29.514,20.809,29.404,21.586z"></path>
    </g>
  </g>
  <g id="like" data-iconmelon="Jolly Icons:0c71e61f862200ef37c9bf2d9a5a5b55">
    <g>
      <path fill-rule="evenodd" clip-rule="evenodd" d="M6.051,13.112c-0.838-0.146-1.608-0.052-2.109,0.366
		c-0.158,0.606-0.353,1.176-0.367,1.926c0.029,0.215,0.146,0.344,0.092,0.642c0.207,0.19,0.263,0.532,0.459,0.733
		c0.198,0.198,0.479,0.315,0.733,0.459c1.111,0.011,1.719-0.482,2.109-1.192c-0.041-0.314,0.036-0.515,0.092-0.733
		c-0.077-0.229-0.12-0.491-0.092-0.825c-0.211-0.155-0.122-0.612-0.368-0.733C6.492,13.467,6.229,13.331,6.051,13.112z
		 M5.409,15.496c-0.255-0.112-0.171-0.563-0.183-0.917C5.477,14.682,5.502,15.336,5.409,15.496z"></path>
      <path fill-rule="evenodd" clip-rule="evenodd" d="M31.266,13.112c-0.376-0.603-0.944-1.013-1.375-1.56
		c-0.725-0.191-1.33-0.505-2.11-0.641c-0.841-0.107-1.77-0.126-2.567-0.275c-0.549,0-1.1,0-1.65,0
		c0.16-0.299,0.459-0.459,0.551-0.825c0.328-0.161,0.329-0.65,0.642-0.825c-0.053-0.391,0.065-0.607,0.092-0.917
		c0.309-0.305,0.446-0.777,0.733-1.101c0.181-0.462,0.64-0.645,0.734-1.191c0.008-1.185-0.068-2.453,0.183-3.393
		c-0.187-0.364-0.386-0.716-0.366-1.284C25.572,0.804,25.305,0.215,24.665,0c-0.367,0-0.733,0-1.102,0
		c-1.068,0.397-1.452,1.481-2.566,1.834c-1.194,2.352-3.242,3.849-5.135,5.502c-0.884,0.888-1.771,1.773-2.751,2.567
		c-0.417,0.469-0.93,0.842-1.467,1.191c-0.532,0.385-1.012,0.821-1.65,1.101c-0.005-0.606-0.381-0.843-0.642-1.191
		c-1.083-0.293-2.059-0.693-3.394-0.734c-0.821,0.003-1.496,0.154-2.384,0.092c-0.138,0.137-0.401,0.147-0.642,0.184
		c-0.128,0.146-0.316,0.234-0.55,0.274c-0.175,0.253-0.39,0.467-0.643,0.642c-0.77,1.615-0.728,4.041-1.101,6.053
		c-0.102,3.625-0.104,7.352-0.091,11.094c0.148,0.218,0.178,0.556,0.275,0.825c0.206,0.191,0.262,0.532,0.458,0.733
		c0.559,0.238,1.166,0.424,1.925,0.459c1.051,0.57,2.79,0.449,4.402,0.459c0.406-0.114,0.683-0.357,1.101-0.459
		c0.588,0.069,0.662-0.376,1.008-0.55c0.084,0.466,0.439,0.66,0.734,0.917c0.345-0.476,0.918,0.182,1.375,0.183
		c0.399,0.242,1.09,0.194,1.558,0.367c1.805,0.151,3.541,0.372,5.411,0.458c0.791-0.156,1.823-0.071,2.75-0.092
		c1.3-0.199,2.478-0.518,3.667-0.824c0.192-0.146,0.374-0.301,0.643-0.367c0.731-0.742,1.411-1.65,1.559-3.026
		c0.09-0.832-0.065-1.739,0-2.751c0.484-0.463,1.082-0.812,1.559-1.283c0.079-0.318,0.286-0.509,0.459-0.734
		c0.261-1.42,0.472-2.89,0.642-4.4c0.604-0.71,1.149-1.479,1.376-2.567C31.456,14.939,31.495,13.892,31.266,13.112z M2.933,14.671
		c0.025-0.312-0.07-0.743,0.092-0.917c-0.022-0.664,0.2-1.084,0.367-1.559c0.089,0.002,0.07,0.111,0.092,0.184
		c-0.2,1.022-0.45,1.994-0.551,3.117C2.749,15.395,2.828,14.787,2.933,14.671z M8.435,14.396c-0.165,0.172-0.202,0.471-0.367,0.642
		c-0.253,1.367-0.461,2.779-0.643,4.219c0.006,0.863-0.059,1.228,0,2.017c-0.239,1.275,0.109,2.6,0.093,3.942
		c0.206,0.467,0.34,1.004,0.641,1.376c0.077,0.748,0.268,1.384,0.368,2.108c-0.993,0.066-2.337,0.204-3.301,0
		c0.016-0.291,0.214-0.676,0-0.917c-0.662-0.143-0.675,0.365-1.192,0.367c0.141-0.562,0.501-0.904,0.642-1.467
		c0.239-0.362,0.64-0.984,0.458-1.468c-0.375-0.156-0.848,0.287-1.1,0.551c-0.411,0.103-0.528,0.904-0.917,0.732
		c0-0.458,0-0.916,0-1.375c0.195-0.232,0.219-0.636,0.458-0.825c0.012-0.386,0.355-0.439,0.367-0.825
		c0.226-0.201,0.553-0.303,0.642-0.642c0.015-0.228-0.144-0.284-0.184-0.458c-0.029-0.215-0.4-0.09-0.458-0.275
		c-0.28-0.066-0.334,0.094-0.55,0.092c-0.133-0.05-0.225,0.356-0.275,0.091c0.434-3.233-0.196-7.531,1.101-9.901
		c0.073-0.018,0.091-0.092,0.183-0.092c0.074-0.018,0.092-0.093,0.184-0.092c0.405,0.148,0.801,0.01,1.101,0.092
		c0.244,0.062,0.466,0.144,0.643,0.274c0.987-0.04,1.446,0.448,2.384,0.458C8.554,13.416,8.515,13.925,8.435,14.396z M29.249,16.229
		c-0.262,0.38-0.503,0.78-0.825,1.101c-0.114,0.312-0.197,0.658-0.366,0.916c-0.107,1.481-0.266,2.914-0.643,4.127
		c-0.525,0.422-1.055,0.84-1.65,1.191c-0.097,0.393-0.312,0.666-0.274,1.192c-0.021,0.356,0.196,0.476,0.274,0.733
		c-0.175,1.108-0.188,2.379-0.733,3.117c-0.553,0.518-1.486,0.653-2.383,0.825c-0.375-0.237-0.955-0.269-1.56-0.274
		c-0.35,0.064,0.096-0.478-0.276-0.551c-0.656-0.076-0.58,0.58-1.099,0.642c-0.501,0.042-0.753-0.163-1.285-0.091
		c-0.001-0.582,0.522-0.64,0.459-1.284c-0.032-0.12-0.16-0.145-0.183-0.275c-0.921,0.028-1.263,0.634-1.742,1.101
		c-0.274-0.185-0.865-0.052-1.283-0.092c0.037-0.398,0.325-0.69,0.091-1.1c-1.116-0.108-1.186,0.832-1.926,1.1
		c0.067-0.489,0.565-1.246,0-1.559c-0.503-0.075-0.391,0.466-0.733,0.55c-0.234,0.194-0.255,0.601-0.643,0.643
		c-0.2-0.165-0.375-0.358-0.641-0.459c0.296-0.589,0.697-1.075,1.008-1.65c0.232-0.488,0.858-1.187,0.458-1.742
		c-0.798-0.035-1.13,0.397-1.466,0.825c-0.222,0.145-0.406,0.328-0.55,0.551c-0.207,0.16-0.211,0.521-0.55,0.55
		c-0.232-0.825,0.61-1.169,0.733-1.926c0.283-0.175,0.257-0.659,0.55-0.825c0.058-0.379,0.385-0.629,0.184-1.008
		c-0.836-0.072-0.966,0.562-1.467,0.824c-0.074,0.295-0.334,0.4-0.46,0.643c-0.206,0.16-0.21,0.521-0.55,0.55
		c0-0.581,0-1.161,0-1.742c0.296-0.714,0.658-1.36,1.101-1.926c0.28-0.697,0.929-1.026,1.009-1.925
		c-0.324-0.16-0.759,0.25-1.1,0.366c-0.337,0.215-0.56,0.541-1.01,0.643c0.148-0.341,0.076-0.902,0.092-1.376
		c0.299-0.312,0.538-0.685,0.825-1.009c0.112-0.192,0.254-0.356,0.367-0.55c0.258-0.018,0.391-0.16,0.366-0.459
		c-0.094-0.211-0.421-0.189-0.733-0.184c-0.193,0.112-0.266,0.346-0.55,0.367c0.113-0.865,0.307-1.648,0.458-2.476
		c1.827-1.015,3.456-2.229,4.951-3.576c0.091-0.367,0.381-0.535,0.459-0.916c0.931-0.599,1.774-1.281,2.566-2.018
		c0.894-0.635,1.671-1.386,2.385-2.201c0.106-0.077,0.246-0.12,0.458-0.091c-0.066-0.281,0.094-0.334,0.092-0.55
		c0.641-0.492,0.978-1.285,1.65-1.743c-0.04-0.314,0.036-0.514,0.092-0.733c0.163-0.081,0.233-0.256,0.551-0.183
		c0.105-0.436-0.214-0.75,0-1.01c0.148-0.025,0.157,0.088,0.274,0.092c0.37,0.518,0.566,1.206,0.643,2.018
		c0.054,0.312,0.251,0.481,0.274,0.825c-0.231,1.512-1.03,2.453-1.742,3.484c-0.29,0.597-0.658,1.114-1.1,1.559
		c-0.253,0.603-0.863,0.849-1.192,1.376c-0.412,0.168-0.741,0.42-1.101,0.642c-0.378,0.172-0.783,0.316-0.824,0.825
		c-0.081,0.6,0.435,0.604,0.733,0.824c0.705,0.065,1.175-0.107,1.649-0.274c1.223,0.185,2.761,0.052,4.127,0.092
		c0.641,0.093,1.305,0.161,2.017,0.183c0.139,0.137,0.402,0.148,0.642,0.185c0.113,0.131,0.316,0.173,0.551,0.183
		c0.16,0.268,0.434,0.422,0.641,0.642C29.315,14.706,29.412,15.598,29.249,16.229z"></path>
    </g>
  </g>
  <g id="brain" data-iconmelon="Brainy Icons:dd108cd429f2623e5679696ec5e60074">
    <path fill-rule="evenodd" clip-rule="evenodd" d="M30.084,11.35c-0.035-0.083-0.024-0.187-0.023-0.28
	c0.008-0.662-0.09-1.313-0.209-1.96c-0.182-0.997-0.516-1.927-1.16-2.736c-0.351-0.438-0.66-0.918-0.938-1.406
	c-0.799-1.41-1.974-2.417-3.358-3.203c-0.956-0.543-1.975-0.956-3.007-1.328C20.65,0.17,19.886-0.003,19.093,0
	c-1.003,0.003-2.007,0.017-3.009,0.01c-0.695-0.005-1.367,0.117-2.038,0.29c-1.341,0.347-2.612,0.881-3.86,1.465
	C9.449,2.108,8.771,2.567,8.164,3.126C6.842,4.345,5.923,5.803,5.404,7.53c-0.377,1.253-0.516,2.519-0.328,3.807
	c0.049,0.341,0.008,0.622-0.145,0.896c-0.152,0.272-0.336,0.528-0.516,0.784c-0.234,0.333-0.475,0.663-0.723,0.986
	c-0.285,0.372-0.566,0.748-0.875,1.102c-0.376,0.429-0.672,0.901-0.896,1.426c-0.115,0.27-0.145,0.545-0.129,0.827
	c0.039,0.659,0.537,1.188,1.195,1.236c0.375,0.027,0.752-0.006,1.129-0.015c0.451-0.009,0.603,0.091,0.765,0.53
	c0.054,0.146,0.117,0.3,0.116,0.451c-0.002,0.479,0.123,0.939,0.275,1.377c0.404,1.166,0.55,2.374,0.691,3.587
	c0.117,1.004,0.352,1.969,0.881,2.848c0.156,0.26,0.338,0.421,0.641,0.494c0.684,0.166,1.369,0.155,2.055,0.053
	c0.4-0.061,0.792-0.179,1.19-0.256c0.471-0.091,0.679,0.026,0.883,0.471c0.052,0.113,0.085,0.238,0.153,0.34
	c0.477,0.702,0.846,1.465,1.238,2.214c0.217,0.414,0.492,0.799,0.766,1.18c0.059,0.082,0.215,0.11,0.332,0.128
	c0.188,0.028,0.307-0.114,0.251-0.278c-0.208-0.623-0.396-1.253-0.63-1.865c-0.314-0.818-0.67-1.621-1-2.434
	c-0.082-0.201-0.156-0.412-0.188-0.625c-0.015-0.1,0.05-0.253,0.13-0.318c0.266-0.217,0.564-0.393,0.83-0.609
	c0.139-0.112,0.287-0.25,0.252-0.47c-0.025-0.161-0.268-0.268-0.559-0.226c-0.154,0.022-0.313,0.05-0.453,0.113
	c-0.768,0.351-1.519,0.742-2.299,1.062c-0.543,0.223-1.107,0.431-1.718,0.389c-0.95-0.063-1.301-0.365-1.402-1.305
	c-0.07-0.658-0.214-1.296-0.384-1.932c-0.082-0.302-0.147-0.608-0.21-0.916c-0.058-0.286,0.038-0.424,0.323-0.423
	c0.73,0.001,1.428-0.171,2.119-0.379c0.238-0.071,0.472-0.169,0.639-0.376c0.077-0.096,0.062-0.267-0.037-0.326
	c-0.377-0.227-0.785-0.186-1.191-0.143c-0.342,0.035-0.682,0.121-1.023,0.128c-1.445,0.032-1.043,0.183-1.387-1.146
	c-0.031-0.12-0.004-0.254-0.031-0.375c-0.122-0.547-0.244-1.095-0.389-1.637c-0.07-0.262-0.264-0.416-0.541-0.456
	c-0.403-0.058-0.801-0.132-1.215-0.055c-0.298,0.055-0.674,0.143-0.844-0.199c-0.135-0.27,0.106-0.532,0.234-0.774
	c0.086-0.163,0.238-0.289,0.353-0.438c0.306-0.396,0.614-0.792,0.911-1.196c0.314-0.429,0.577-0.904,0.933-1.296
	c0.739-0.816,0.944-1.84,1.101-2.85c0.113-0.739,0.248-1.48,0.312-2.229c0.031-0.347,0.166-0.662,0.283-0.987
	c0.258-0.72,0.705-1.321,1.113-1.952c0.932-1.439,2.287-2.319,3.861-2.843c1.615-0.536,3.314-0.652,5.004-0.736
	c1.424-0.07,2.793,0.268,4.16,0.637c1.236,0.333,2.283,1.005,3.336,1.684c0.131,0.083,0.246,0.195,0.358,0.304
	c0.403,0.393,0.772,0.817,1.259,1.125c0.2,0.127,0.342,0.364,0.478,0.572c0.8,1.219,1.329,2.541,1.589,3.985
	c0.247,1.368,0.152,2.682-0.398,3.956c-0.272,0.632-0.565,1.255-0.869,1.873c-0.537,1.096-1.055,2.203-1.703,3.24
	c-0.549,0.877-1.092,1.754-1.869,2.462c-0.249,0.227-0.434,0.534-0.605,0.828c-0.092,0.153-0.107,0.355-0.135,0.539
	c-0.027,0.2,0.148,0.357,0.348,0.326c0.136-0.021,0.27-0.052,0.404-0.08c0.009-0.012,0.02-0.023,0.029-0.036
	c0.023-0.011,0.049-0.02,0.07-0.033c0.014-0.008,0.023-0.023,0.034-0.036c-0.026,0.032-0.052,0.063-0.079,0.095
	c-0.018,0.004-0.037,0.008-0.055,0.011c-0.125,0.158-0.262,0.31-0.362,0.48c-0.174,0.295-0.341,0.597-0.472,0.912
	c-0.098,0.235,0.197,0.519,0.444,0.439c0.267-0.085,0.521-0.202,0.786-0.291c0.033-0.012,0.098,0.056,0.139,0.097
	c0.017,0.017,0.021,0.071,0.007,0.09c-0.117,0.144-0.231,0.294-0.363,0.423c-0.251,0.244-0.456,0.515-0.581,0.845
	c-0.084,0.221-0.068,0.357,0.09,0.51c0.121,0.114,0.256,0.178,0.424,0.11c0.088-0.035,0.174-0.073,0.263-0.104
	c0.323-0.118,0.388-0.08,0.44,0.219c0.045,0.257,0.055,0.496-0.148,0.7c-0.066,0.065-0.113,0.15-0.158,0.233
	c-0.105,0.188-0.062,0.415,0.138,0.466c0.306,0.077,0.509,0.201,0.569,0.534c0.023,0.122,0.165,0.178,0.305,0.16
	c0.465-0.057,0.581-0.192,0.58-0.573c0-0.972,0.001-1.944,0-2.917c0-1.13,0.006-2.259-0.008-3.388
	c-0.004-0.398,0.119-0.738,0.361-1.043c0.686-0.864,1.174-1.852,1.712-2.805c0.507-0.899,0.927-1.848,1.37-2.783
	c0.375-0.794,0.689-1.61,0.875-2.475C30.145,12.575,30.347,11.975,30.084,11.35z M22.793,12.745
	c-0.123-0.462-0.342-0.87-0.627-1.253c-0.227-0.305-0.217-0.383,0.018-0.656c0.203-0.239,0.426-0.46,0.645-0.685
	c0.355-0.361,0.655-0.762,0.851-1.23c0.095-0.228,0.158-0.469,0.209-0.622c-0.013-0.221-0.005-0.349-0.03-0.47
	c-0.094-0.46-0.309-0.82-0.812-0.923c-0.154-0.031-0.305-0.102-0.457-0.102C22.025,6.809,21.459,6.73,20.9,6.869
	c-0.121,0.03-0.246,0.041-0.371,0.054c-0.211,0.021-0.349-0.08-0.416-0.292c-0.143-0.446-0.279-0.896-0.432-1.338
	c-0.146-0.424-0.41-0.773-0.732-1.08c-0.188-0.177-0.406-0.284-0.656-0.348c-0.163-0.041-0.314-0.047-0.453,0.039
	C16.98,4.439,16.189,5.047,15.748,6c-0.066,0.143-0.127,0.287-0.205,0.423c-0.07,0.121-0.2,0.176-0.32,0.109
	c-0.533-0.294-1.129-0.354-1.709-0.47c-0.431-0.085-0.806-0.01-1.1,0.35c-0.119,0.145-0.279,0.256-0.4,0.397
	c-0.275,0.317-0.422,0.688-0.445,1.112c-0.041,0.679,0.186,1.238,0.736,1.639c0.336,0.244,0.592,0.555,0.842,0.876
	c0.121,0.158,0.109,0.255-0.06,0.385c-0.175,0.133-0.347,0.275-0.54,0.374c-0.794,0.404-1.076,1.101-1.123,1.93
	c-0.038,0.706,0.26,1.149,0.957,1.302c0.543,0.118,1.1,0.287,1.669,0.085c0.114-0.041,0.247-0.037,0.372-0.045
	c0.17-0.011,0.309,0.039,0.366,0.219c0.165,0.521,0.462,0.957,0.872,1.316c0.869,0.762,2,0.717,2.754-0.15
	c0.283-0.326,0.488-0.724,0.713-1.099c0.182-0.307,0.258-0.358,0.597-0.271c0.272,0.069,0.54,0.164,0.813,0.23
	c0.211,0.052,0.428,0.101,0.644,0.112c0.666,0.038,1.12-0.337,1.503-0.821C22.992,13.612,22.908,13.178,22.793,12.745z
	 M14.578,12.676c0,0.156,0.004,0.312,0,0.467c-0.009,0.247-0.063,0.325-0.312,0.382c-0.33,0.075-0.663,0.169-0.998,0.187
	c-0.503,0.026-0.893-0.301-1.021-0.783c-0.067-0.256,0.063-0.591,0.285-0.724c0.452-0.271,0.903-0.54,1.354-0.812
	c0.16-0.097,0.316-0.056,0.418,0.067c0.113,0.137,0.227,0.305,0.256,0.474c0.044,0.24,0.012,0.494,0.012,0.742H14.578z
	 M14.973,8.436c-0.062,0.338-0.131,0.674-0.182,1.014c-0.029,0.192-0.094,0.357-0.232,0.496c-0.123,0.121-0.287,0.157-0.417,0.062
	c-0.376-0.274-0.753-0.548-1.137-0.812c-0.516-0.355-0.671-0.942-0.499-1.49c0.156-0.499,0.598-0.816,1.193-0.81
	C13.758,6.908,13.884,6.922,14,6.964c0.115,0.042,0.244,0.089,0.328,0.173c0.229,0.228,0.717,0.034,0.791,0.394
	C15.176,7.811,15.028,8.132,14.973,8.436z M16.302,6.749c0.222-0.808,0.649-1.472,1.346-1.95c0.27-0.186,0.546-0.158,0.755,0.065
	c0.391,0.417,0.936,1.669,0.958,2.265c-0.038,0.048-0.093,0.175-0.187,0.224c-0.359,0.183-0.727,0.35-1.1,0.501
	c-0.107,0.044-0.262,0.061-0.361,0.015c-0.42-0.193-0.834-0.403-1.236-0.632C16.303,7.139,16.246,6.955,16.302,6.749z M15.738,8.704
	c0.012-0.123,0.02-0.246,0.037-0.367c0.054-0.385,0.175-0.432,0.533-0.209c0.131,0.08,0.263,0.156,0.391,0.24
	c0.137,0.092,0.131,0.187-0.025,0.278c-0.236,0.142-0.477,0.277-0.719,0.41c-0.123,0.067-0.217-0.01-0.217-0.169
	C15.738,8.826,15.738,8.765,15.738,8.704z M15.564,13.165c-0.035-0.085-0.037-0.181-0.053-0.27c0.01-0.098,0.006-0.194,0.033-0.282
	c0.027-0.086,0.088-0.162,0.203-0.109c0.281,0.13,0.562,0.259,0.838,0.398c0.023,0.012,0.02,0.146,0.008,0.148
	c-0.297,0.082-0.595,0.158-0.896,0.222C15.66,13.28,15.583,13.213,15.564,13.165z M18.475,14.09
	c-0.211,0.458-0.457,0.896-0.848,1.224c-0.159,0.134-0.368,0.208-0.497,0.278c-0.44-0.04-0.753-0.177-0.987-0.447
	c-0.141-0.162-0.248-0.357-0.355-0.547c-0.102-0.18-0.002-0.361,0.219-0.42c0.572-0.151,1.145-0.301,1.719-0.447
	c0.09-0.023,0.186-0.042,0.277-0.041s0.184,0.024,0.273,0.047C18.439,13.777,18.537,13.954,18.475,14.09z M19.533,10.576
	c-0.01,0.129-0.021,0.253-0.029,0.378c-0.035,0.608-0.268,1.083-0.873,1.316c-0.145,0.056-0.277,0.143-0.414,0.217
	c-0.152,0.081-0.295,0.061-0.444-0.017c-0.612-0.313-1.222-0.632-1.843-0.926c-0.297-0.141-0.408-0.34-0.4-0.663
	c0.01-0.351,0.141-0.587,0.453-0.752c0.414-0.22,0.805-0.48,1.221-0.698c0.995-0.522,0.645-0.547,1.533,0.09
	c0.203,0.146,0.383,0.322,0.578,0.479C19.505,10.152,19.576,10.344,19.533,10.576z M19.646,8.798
	c-0.014,0.132-0.154,0.224-0.25,0.155c-0.121-0.087-0.244-0.18-0.34-0.292c-0.029-0.035,0.008-0.151,0.045-0.212
	c0.027-0.044,0.103-0.06,0.158-0.084c0.273-0.124,0.389-0.05,0.395,0.251C19.652,8.678,19.652,8.738,19.646,8.798z M20.287,8.77
	c0.026-0.837,0.219-1.031,1.058-1.012c0.435,0.01,0.869,0.057,1.303,0.096c0.185,0.017,0.304,0.225,0.257,0.418
	c-0.091,0.373-0.277,0.693-0.532,0.974c-0.188,0.208-0.374,0.422-0.587,0.603c-0.197,0.168-0.33,0.587-0.645,0.406
	c-0.383-0.221-0.859-0.438-0.854-1.017C20.289,9.082,20.287,8.926,20.287,8.77z M20.25,10.892c0.021-0.037,0.115-0.079,0.133-0.065
	c0.064,0.053,0.166,0.15,0.15,0.189c-0.039,0.098-0.135,0.173-0.207,0.255c-0.082-0.061-0.164-0.098-0.162-0.125
	C20.174,11.059,20.205,10.969,20.25,10.892z M20.906,13.902c-0.336-0.048-0.658-0.19-0.982-0.305
	c-0.191-0.067-0.266-0.257-0.205-0.463c0.082-0.273,0.184-0.526,0.457-0.681c0.244-0.139,0.467-0.313,0.703-0.468
	c0.498-0.326,1-0.152,1.188,0.417c0.047,0.146,0.059,0.306,0.072,0.376C22.145,13.682,21.588,13.999,20.906,13.902z M17.858,9.74
	c-0.439-0.008-0.702,0.083-0.851,0.367c-0.127,0.245-0.232,0.522-0.256,0.793c-0.047,0.554,0.459,0.924,1.002,0.79
	c0.354-0.087,0.631-0.271,0.816-0.583c0.189-0.314,0.251-0.642,0.049-0.976C18.438,9.832,18.153,9.73,17.858,9.74z"></path>
  </g>
  <g id="internet" data-iconmelon="Brainy Icons:f041b4cf38bea32389499f83d93ade69">
    <path fill-rule="evenodd" clip-rule="evenodd" d="M31.762,26.498c-0.299-0.806-0.641-1.596-0.976-2.388
	c-0.345-0.818-0.949-1.504-1.206-2.369c-0.043-0.141-0.164-0.258-0.252-0.385c-0.33-0.477-0.756-0.801-1.356-0.854
	c-0.306-0.027-0.608-0.104-0.913-0.106c-1.353-0.01-2.701-0.045-4.054-0.166c-1.683-0.148-3.38-0.14-5.07-0.208
	c-1.162-0.046-2.337,0.12-3.483-0.202c-1.412-0.073-2.825-0.147-4.238-0.221c0,0.011-0.001,0.022-0.001,0.033
	c-0.432,0-0.862-0.006-1.294,0.002c-0.43,0.008-0.861,0.019-1.291,0.049c-0.428,0.032-0.853,0.118-1.28,0.133
	c-0.624,0.021-1.234,0.139-1.793,0.381c-0.428,0.188-0.899,0.346-1.188,0.802c-0.737,1.17-1.543,2.298-2.263,3.479
	c-0.712,1.166-1.236,2.407-1.074,3.83c0.021,0.184,0.022,0.369,0.039,0.553c0.012,0.122,0.025,0.247,0.057,0.364
	c0.116,0.438,0.46,0.715,0.914,0.746c0.216,0.016,0.443-0.014,0.643,0.048c0.86,0.267,1.741,0.325,2.632,0.392
	c0.771,0.059,1.527,0.104,2.294-0.026c0.545-0.093,1.099-0.161,1.65-0.181c0.736-0.026,1.478-0.024,2.214,0.021
	c0.735,0.045,1.466,0.159,2.199,0.238c0.121,0.013,0.246,0.009,0.368-0.004c1.626-0.169,3.257-0.156,4.888-0.125
	c0.708,0.014,1.416,0.013,2.124-0.003c1.138-0.024,2.271-0.051,3.404,0.142c0.477,0.081,0.98,0.017,1.472-0.004
	c0.366-0.016,0.73-0.089,1.097-0.098c0.615-0.014,1.232,0.009,1.848,0.006c0.677-0.003,1.354-0.012,2.031-0.029
	c0.506-0.014,0.959-0.183,1.375-0.476c0.242-0.171,0.376-0.374,0.401-0.682c0.028-0.334,0.067-0.685,0.193-0.989
	C32.12,27.602,31.965,27.044,31.762,26.498z M30.045,27.588c-0.146,0.046-0.292,0.11-0.442,0.126
	c-1.71,0.187-3.413,0.39-5.142,0.103c-0.936-0.156-1.89-0.21-2.824-0.4c-0.208-0.042-0.429-0.028-0.644-0.028
	c-1.754-0.007-3.509-0.044-5.262-0.005c-1.011,0.023-2.022,0.033-3.035,0.151c-0.905,0.104-1.828,0.121-2.749-0.091
	c-0.493-0.114-1.038-0.012-1.561,0.006c-0.366,0.013-0.733,0.06-1.101,0.066c-1.415,0.027-2.83,0.035-4.245,0.071
	c-0.354,0.01-0.667-0.067-0.966-0.241c-0.251-0.146-0.346-0.36-0.249-0.619c0.128-0.345,0.287-0.68,0.295-1.06
	c0.001-0.058,0.021-0.127,0.057-0.173c0.556-0.699,0.697-1.64,1.355-2.288c0.234-0.23,0.373-0.558,0.556-0.842
	c0.285-0.444,0.655-0.655,1.219-0.673c1.751-0.053,3.5-0.171,4.682-0.234c1.77,0.021,2.968-0.045,4.164,0.129
	c0.479,0.069,0.98-0.012,1.472-0.026c0.338-0.01,0.682-0.066,1.012-0.024c1.165,0.15,2.334,0.106,3.502,0.125
	c0.522,0.008,1.038,0.051,1.559,0.11c1.221,0.139,2.449,0.192,3.677,0.265c0.398,0.024,0.8-0.006,1.2-0.003
	c0.214,0.002,0.432,0.003,0.644,0.035c0.62,0.095,1.105,0.373,1.278,1.027c0.097,0.364,0.276,0.682,0.52,0.967
	c0.06,0.07,0.133,0.14,0.161,0.223c0.336,0.987,0.913,1.882,1.124,2.917C30.35,27.441,30.308,27.508,30.045,27.588z M3.238,17.193
	c0.014,0.121,0.023,0.248,0.064,0.361c0.33,0.925,1.161,1.739,2.262,1.745c0.335,0.002,0.668,0.124,1.005,0.015
	c0.89,0.254,1.766-0.03,2.647-0.066c0.369-0.016,0.741-0.02,1.105-0.067c0.707-0.092,1.407-0.088,2.115,0.004
	c0.762,0.099,1.528,0.175,2.296,0.215c1.689,0.089,3.381,0.153,5.071,0.222c0.584,0.024,1.177-0.018,1.753,0.059
	c1.166,0.156,2.334,0.138,3.503,0.141c1.038,0.004,1.991-0.32,2.875-0.854c0.379-0.229,0.655-0.537,0.83-0.957
	c0.407-0.975,0.688-1.973,0.691-3.035c0.006-1.479,0.001-2.956,0.001-4.923c0.013-0.867,0.031-2.221,0.052-3.576
	c0.017-1.118-0.167-2.199-0.553-3.253c-0.288-0.783-0.807-1.276-1.604-1.517c-0.539-0.163-1.084-0.225-1.639-0.216
	c-1.691,0.027-3.385-0.043-5.074,0.146c-0.822,0.094-1.654-0.031-2.482-0.071c-2.677-0.132-5.353,0.005-8.025,0.179
	C10.039,1.75,9.945,1.749,9.855,1.768c-0.641,0.13-1.286,0.094-1.931,0.048c-0.122-0.01-0.25-0.051-0.364-0.026
	C6.954,1.923,6.34,1.918,5.725,1.945c-0.999,0.044-1.423,0.281-2.059,1.04c-0.02,0.023-0.043,0.044-0.059,0.071
	c-0.06,0.105-0.141,0.207-0.17,0.322c-0.08,0.327-0.165,0.658-0.202,0.992C3.092,5.656,3.024,6.946,3.017,8.24
	c-0.019,2.863,0.11,5.724,0.2,8.584C3.222,16.947,3.225,17.07,3.238,17.193z M4.752,9.852c0.056-1.166,0.096-2.334,0.179-3.498
	c0.045-0.641,0.198-1.271,0.283-1.91C5.268,4.047,5.51,3.848,5.863,3.759C6.399,3.625,6.935,3.443,7.479,3.4
	c1.283-0.101,2.561-0.255,3.863-0.108c0.938,0.105,1.901-0.011,2.854-0.032c0.245-0.006,0.49-0.038,0.735-0.041
	c2-0.021,4-0.032,6-0.062c0.921-0.014,1.843,0.006,2.761-0.113c0.455-0.059,0.922-0.023,1.384-0.029
	c0.6-0.009,1.14,0.176,1.669,0.454c0.527,0.279,0.863,0.697,1.02,1.248C27.904,5.215,28.012,5.721,28,6.256
	c-0.028,1.414-0.01,2.83-0.01,4.246h-0.031c0,1.415-0.019,2.831,0.007,4.245c0.018,0.983-0.372,1.813-0.962,2.53
	c-0.426,0.52-1.011,0.845-1.742,0.921c-0.647,0.068-1.275,0.046-1.92,0.011c-1.964-0.107-3.932-0.168-5.898-0.229
	c-0.768-0.024-1.537,0.018-2.297-0.149c-0.207-0.045-0.429-0.023-0.644-0.039c-0.674-0.051-1.347-0.111-2.021-0.154
	c-0.829-0.054-1.653-0.039-2.484,0.055c-1.282,0.146-2.573,0.218-3.849-0.094c-0.208-0.051-0.413-0.12-0.611-0.201
	c-0.234-0.096-0.413-0.259-0.517-0.5c-0.182-0.424-0.349-0.845-0.342-1.324C4.705,13.665,4.662,11.756,4.752,9.852z M19.061,24.34
	c-0.192-0.384-0.496-0.619-0.938-0.638c-0.276-0.011-0.552-0.014-0.829-0.015c-0.581-0.004-1.161,0.033-1.737-0.124
	c-0.229-0.062-0.493-0.059-0.73-0.019c-0.602,0.103-1.199,0.23-1.792,0.376c-0.132,0.032-0.266,0.157-0.347,0.275
	c-0.322,0.469-0.465,0.991-0.436,1.565c0.033,0.67,0.431,1.085,1.091,1.091c0.859,0.008,1.718,0.002,2.577,0.002v-0.057
	c0.858,0,1.718,0.001,2.578-0.001c0.152,0,0.307-0.002,0.458-0.02c0.183-0.021,0.335-0.182,0.36-0.367
	c0.068-0.521,0.04-1.043-0.058-1.558C19.225,24.676,19.143,24.503,19.061,24.34z M17.864,26.047
	c-0.245,0.007-0.491,0.016-0.734-0.004c-0.794-0.062-1.585-0.145-2.378-0.201c-0.271-0.02-0.544,0.016-0.816,0.027
	c-0.201,0.009-0.318-0.067-0.338-0.223c-0.041-0.297,0.027-0.469,0.238-0.521c0.235-0.059,0.478-0.116,0.719-0.125
	c0.52-0.019,1.042-0.005,1.562-0.005v-0.037c0.49,0,0.98-0.005,1.471,0.001c0.372,0.006,0.501,0.114,0.569,0.457
	c0.018,0.09,0.021,0.183,0.024,0.274C18.19,25.914,18.083,26.041,17.864,26.047z M23.623,11.467c-0.86,0-1.722,0-2.491,0
	c-1.015,0.021-1.938,0.027-2.86,0.062c-0.334,0.012-0.666,0.097-1.002,0.132c-0.257,0.026-0.376,0.188-0.44,0.405
	c-0.044,0.146-0.078,0.3-0.081,0.45c-0.013,0.953,0.022,1.91-0.037,2.861c-0.038,0.626,0.817,0.413,0.807,0.968
	c-0.001,0.042,0.146,0.089,0.227,0.128c0.025,0.013,0.06,0.012,0.09,0.011c0.8-0.02,1.6-0.03,2.399-0.063
	c0.582-0.023,1.163-0.084,1.745-0.111c0.492-0.022,0.984-0.018,1.477-0.031c0.23-0.007,0.417-0.115,0.529-0.318
	c0.164-0.295,0.299-0.594,0.291-0.953c-0.019-0.891,0.002-1.777,0.16-2.664C24.558,11.659,24.336,11.468,23.623,11.467z
	 M18.174,12.652c-0.133,0.3-0.274,0.596-0.417,0.899c-0.017,0.013-0.04,0.031-0.063,0.049c-0.018-0.024-0.047-0.049-0.048-0.075
	c-0.013-0.326-0.029-0.652-0.02-0.979c0.001-0.049,0.13-0.132,0.201-0.135c0.109-0.004,0.225,0.039,0.329,0.082
	C18.181,12.506,18.193,12.608,18.174,12.652z M18.545,13.725c0.003-0.007,0.006-0.014,0.008-0.021
	c0.006-0.003,0.01-0.007,0.016-0.01c-0.064-0.45,0.176-0.791,0.432-1.119c0.12-0.153,0.307-0.181,0.497-0.153
	c0.027,0.005,0.069,0.02,0.076,0.04c0.016,0.045,0.037,0.121,0.016,0.142c-0.365,0.34-0.558,0.844-1.021,1.091
	c0.001,0.01,0.001,0.019,0.002,0.028L18.545,13.725c-0.019,0.044-0.037,0.088-0.055,0.131C18.395,13.743,18.465,13.73,18.545,13.725
	z M21.292,15.287c-0.091,0.074-0.183,0.188-0.283,0.199c-0.455,0.049-0.913,0.066-1.234,0.087c-0.473,0-0.809,0.003-1.146-0.001
	c-0.167-0.002-0.234-0.088-0.177-0.21c0.246-0.524,0.487-1.05,0.737-1.572c0.079-0.163,0.176-0.319,0.273-0.474
	c0.021-0.033,0.082-0.041,0.124-0.061c0.004,0.058,0.024,0.12,0.008,0.17c-0.059,0.174-0.14,0.339-0.194,0.514
	c-0.045,0.144-0.076,0.294-0.092,0.444c-0.019,0.188,0.021,0.366,0.185,0.49c0.185,0.138,0.346,0.053,0.498-0.061
	c0.126-0.093,0.203-0.076,0.271,0.072c0.049,0.109,0.117,0.216,0.199,0.303c0.108,0.115,0.239,0.183,0.403,0.075
	c0.102-0.065,0.215-0.117,0.329-0.159c0.021-0.007,0.077,0.058,0.105,0.099C21.312,15.222,21.308,15.274,21.292,15.287z
	 M22.299,12.614c-0.256,0.237-0.407,0.591-0.771,0.71c0,0.009,0,0.019-0.001,0.027c-0.013,0.003-0.025,0.005-0.039,0.008
	c-0.019,0.026-0.037,0.053-0.057,0.078c0.005-0.021,0.002-0.053,0.016-0.062c0.012-0.008,0.026-0.013,0.041-0.016
	c0.007-0.009,0.014-0.018,0.02-0.026c0.008-0.003,0.014-0.007,0.021-0.009c0.008-0.172-0.001-0.348,0.034-0.515
	c0.082-0.393,0.221-0.464,0.669-0.384C22.332,12.443,22.374,12.545,22.299,12.614z M23.393,13.606
	c-0.046,0.814-0.038,0.816-0.748,1.165c-0.037,0.019-0.119-0.001-0.149-0.032c-0.034-0.037-0.06-0.118-0.043-0.161
	c0.16-0.397,0.348-0.785,0.491-1.188c0.089-0.249,0.271-0.498,0.119-0.789c-0.007-0.135,0.076-0.223,0.205-0.213
	c0.135,0.011,0.25,0.075,0.238,0.218C23.48,12.939,23.412,13.271,23.393,13.606z M7.51,7.935c0,0.614-0.017,1.228,0.007,1.841
	c0.015,0.413,0.229,0.61,0.64,0.627c0.366,0.015,0.735,0.001,1.104-0.008c0.613-0.014,1.227-0.043,1.84-0.049
	c0.643-0.006,1.287-0.011,1.918,0.164c0.281,0.078,0.57,0.039,0.747-0.219c0.208-0.305,0.36-0.652,0.305-1.032
	c-0.122-0.826-0.098-1.646,0.009-2.471c0.038-0.302,0.033-0.613,0.014-0.918c-0.028-0.428-0.296-0.677-0.718-0.677
	c-0.644,0-1.288,0.02-1.933,0.023c-0.92,0.006-1.841-0.004-2.762,0.01C8.016,5.235,7.52,5.719,7.502,6.37
	C7.486,6.891,7.498,7.413,7.498,7.935H7.51z M13.073,6.163c0.018-0.003,0.044,0.039,0.066,0.06c-0.021,0.021-0.046,0.062-0.062,0.06
	c-0.056-0.011-0.108-0.038-0.162-0.058C12.968,6.203,13.019,6.175,13.073,6.163z M10.643,6.537c0.024-0.112,0.098-0.219,0.162-0.32
	c0.059-0.094,0.314-0.117,0.422-0.05c0.025,0.017,0.049,0.036,0.072,0.055c-0.007,0.028-0.009,0.06-0.021,0.085
	c-0.085,0.16-0.172,0.318-0.258,0.479c-0.36,0.665-0.503,0.838-0.553,0.706C10.334,7.142,10.576,6.854,10.643,6.537z M10.266,9.189
	c0.076-0.042,0.174-0.09,0.252-0.075c0.221,0.039,0.421,0.013,0.627-0.07c0.066-0.027,0.193-0.02,0.237,0.025
	c0.314,0.326,0.647,0.282,0.997,0.078c0.025-0.015,0.072-0.029,0.086-0.018c0.059,0.051,0.122,0.104,0.154,0.172
	c0.012,0.024-0.047,0.112-0.088,0.128c-0.082,0.028-0.176,0.033-0.264,0.034c-0.306,0.004-0.61,0.001-0.916,0.001
	c0-0.008,0.001-0.018,0.001-0.026c-0.367,0-0.734,0.002-1.102-0.005c-0.031-0.001-0.093-0.074-0.087-0.1
	C10.179,9.279,10.218,9.215,10.266,9.189z M9.531,6.201c0.043-0.032,0.112-0.035,0.17-0.039c0.023-0.002,0.05,0.027,0.074,0.043
	c0.013,0.022,0.043,0.056,0.036,0.067C9.676,6.508,9.538,6.74,9.396,6.972C9.386,6.989,9.338,6.995,9.312,6.988
	S9.242,6.949,9.245,6.935C9.297,6.674,9.289,6.386,9.531,6.201z M8.876,9.056c0.292-0.153,0.291-0.152,0.505,0.098
	C9.42,9.2,9.465,9.242,9.508,9.285c0.094,0.098,0.034,0.153-0.061,0.172c-0.269,0.055-0.54,0.099-0.77,0.141
	c-0.073-0.016-0.11-0.014-0.131-0.031c-0.044-0.037-0.1-0.08-0.113-0.131C8.422,9.388,8.439,9.3,8.476,9.275
	C8.602,9.191,8.74,9.127,8.876,9.056z M8.481,6.198c0.021,0.05,0.042,0.099,0.063,0.147C8.51,6.367,8.475,6.389,8.44,6.411
	C8.432,6.358,8.417,6.307,8.42,6.256C8.42,6.236,8.46,6.217,8.481,6.198z M16.515,10.172c0.481,0.093,0.97,0.175,1.458,0.197
	c1.91,0.085,3.811-0.123,5.715-0.203c0.182-0.008,0.365-0.056,0.537-0.116c0.109-0.038,0.206-0.127,0.295-0.208
	c0.123-0.112,0.07-0.404-0.081-0.478c-0.082-0.04-0.171-0.086-0.258-0.09c-0.214-0.011-0.431-0.006-0.645,0.006
	c-1.474,0.079-2.946,0.163-4.42,0.245c-0.001-0.028-0.002-0.055-0.003-0.083c-0.738,0-1.477-0.003-2.215,0.003
	c-0.182,0.001-0.365,0.021-0.545,0.05c-0.118,0.019-0.236,0.28-0.162,0.382C16.277,9.994,16.391,10.149,16.515,10.172z
	 M24.566,7.647c-0.238-0.049-0.485-0.071-0.729-0.072c-1.63-0.003-3.262,0.008-4.893,0.003c-0.551-0.002-1.104,0.046-1.653-0.091
	c-0.127-0.031-0.298,0.044-0.427,0.111c-0.144,0.075-0.203,0.226-0.17,0.394c0.032,0.16,0.125,0.276,0.286,0.327
	c0.058,0.018,0.119,0.034,0.179,0.038c0.705,0.044,1.41,0.102,2.117,0.125c0.676,0.021,1.354,0.004,2.03,0.004v0.007
	c0.861,0,1.724-0.001,2.585,0c0.246,0,0.493,0.007,0.717-0.125c0.143-0.085,0.23-0.2,0.213-0.374
	C24.806,7.828,24.726,7.681,24.566,7.647z M16.576,6.332c0.146,0.042,0.295,0.09,0.446,0.106c0.821,0.091,1.642,0.189,2.465,0.251
	c0.642,0.047,1.286,0.043,1.963,0.062c0.794-0.019,1.621-0.038,2.448-0.061c0.152-0.005,0.306-0.015,0.455-0.04
	c0.172-0.029,0.317-0.219,0.324-0.398c0.01-0.209-0.171-0.425-0.385-0.442c-0.152-0.013-0.31-0.022-0.459,0.001
	c-1.096,0.18-2.2,0.093-3.302,0.105c-0.274,0.004-0.55-0.022-0.823-0.052c-0.79-0.083-1.58-0.178-2.371-0.259
	c-0.182-0.019-0.367-0.008-0.551-0.003c-0.06,0.001-0.121,0.019-0.177,0.04c-0.155,0.06-0.247,0.171-0.265,0.339
	C16.328,6.142,16.418,6.286,16.576,6.332z M13.497,15.197c-0.676-0.008-1.345,0.064-2.017,0.133c-0.67,0.068-1.35,0.03-2.025,0.039
	c-0.43,0.007-0.859,0.014-1.289,0.023c-0.189,0.004-0.356,0.064-0.5,0.198c-0.141,0.13-0.132,0.383,0.024,0.472
	c0.249,0.14,0.515,0.188,0.796,0.187c0.461-0.003,0.922-0.001,1.382-0.001c0.001,0.01,0.001,0.02,0.001,0.029
	c1.286-0.059,2.572-0.118,3.857-0.18c0.091-0.004,0.183-0.024,0.271-0.047c0.221-0.057,0.363-0.271,0.326-0.485
	c-0.031-0.188-0.18-0.34-0.367-0.356C13.805,15.195,13.65,15.198,13.497,15.197z M13.919,13.532
	c-0.124-0.072-0.287-0.115-0.431-0.111c-0.244,0.008-0.485,0.081-0.729,0.092c-0.768,0.033-1.536,0.047-2.305,0.073
	c-0.767,0.026-1.534,0.051-2.301,0.094c-0.176,0.011-0.362,0.067-0.519,0.149c-0.143,0.075-0.201,0.249-0.131,0.399
	c0.044,0.097,0.154,0.187,0.255,0.225c0.109,0.041,0.242,0.02,0.364,0.02c0.769,0.002,1.537,0.002,2.396,0.002
	c0.709-0.019,1.509-0.021,2.306-0.067c0.363-0.021,0.725-0.114,1.076-0.21c0.153-0.041,0.231-0.218,0.203-0.376
	C14.086,13.715,14.009,13.585,13.919,13.532z M7.69,12.534c0.111,0.043,0.236,0.063,0.357,0.071c1.133,0.08,2.267,0.154,3.399,0.23
	c0-0.008,0.001-0.016,0.001-0.022c0.584,0,1.167,0.004,1.75-0.004c0.15-0.002,0.303-0.036,0.451-0.069
	c0.128-0.029,0.258-0.222,0.245-0.354c-0.018-0.169-0.115-0.298-0.271-0.333c-0.177-0.041-0.364-0.048-0.546-0.045
	c-0.89,0.018-1.774,0.007-2.665-0.084c-0.882-0.09-1.778-0.044-2.669-0.051c-0.155-0.001-0.288,0.154-0.287,0.301
	C7.458,12.343,7.535,12.474,7.69,12.534z"></path>
  </g>
</svg>